<mxfile host="Electron" agent="Mozilla/5.0 (Windows NT 10.0; Win64; x64) AppleWebKit/537.36 (KHTML, like Gecko) draw.io/24.7.17 Chrome/128.0.6613.36 Electron/32.0.1 Safari/537.36" version="24.7.17">
  <diagram name="Page-1" id="3QnFaCBvZl_NtJ6jUEr5">
    <mxGraphModel dx="662" dy="426" grid="0" gridSize="10" guides="1" tooltips="1" connect="1" arrows="1" fold="1" page="1" pageScale="1" pageWidth="850" pageHeight="1100" math="1" shadow="0">
      <root>
        <mxCell id="0" />
        <mxCell id="1" parent="0" />
        <mxCell id="bS4X82QOEMJh5Wwm6DTl-4" style="edgeStyle=orthogonalEdgeStyle;rounded=0;orthogonalLoop=1;jettySize=auto;html=1;exitX=1;exitY=0.5;exitDx=0;exitDy=0;entryX=0;entryY=0.5;entryDx=0;entryDy=0;" edge="1" parent="1" source="bS4X82QOEMJh5Wwm6DTl-2" target="bS4X82QOEMJh5Wwm6DTl-3">
          <mxGeometry relative="1" as="geometry" />
        </mxCell>
        <mxCell id="bS4X82QOEMJh5Wwm6DTl-2" value="$$\textbf{x}&#39;=A\textbf{x} + B\textbf{u}$$&lt;div&gt;$$\textbf{y}=C\textbf{x} + D\textbf{u}$$&lt;/div&gt;" style="rounded=0;whiteSpace=wrap;html=1;" vertex="1" parent="1">
          <mxGeometry x="300" y="200" width="100" height="60" as="geometry" />
        </mxCell>
        <mxCell id="bS4X82QOEMJh5Wwm6DTl-11" style="edgeStyle=orthogonalEdgeStyle;rounded=0;orthogonalLoop=1;jettySize=auto;html=1;exitX=1;exitY=0.5;exitDx=0;exitDy=0;" edge="1" parent="1" source="bS4X82QOEMJh5Wwm6DTl-3">
          <mxGeometry relative="1" as="geometry">
            <mxPoint x="620" y="230" as="targetPoint" />
          </mxGeometry>
        </mxCell>
        <mxCell id="bS4X82QOEMJh5Wwm6DTl-3" value="Car Plant" style="rounded=0;whiteSpace=wrap;html=1;" vertex="1" parent="1">
          <mxGeometry x="440" y="200" width="100" height="60" as="geometry" />
        </mxCell>
        <mxCell id="bS4X82QOEMJh5Wwm6DTl-14" value="&lt;font style=&quot;font-size: 16px;&quot;&gt;+&lt;/font&gt;" style="text;html=1;align=center;verticalAlign=middle;whiteSpace=wrap;rounded=0;" vertex="1" parent="1">
          <mxGeometry x="80" y="200" width="60" height="30" as="geometry" />
        </mxCell>
        <mxCell id="bS4X82QOEMJh5Wwm6DTl-15" value="&lt;font style=&quot;font-size: 16px;&quot;&gt;-&lt;/font&gt;" style="text;html=1;align=center;verticalAlign=middle;whiteSpace=wrap;rounded=0;" vertex="1" parent="1">
          <mxGeometry x="90" y="240" width="60" height="30" as="geometry" />
        </mxCell>
        <mxCell id="bS4X82QOEMJh5Wwm6DTl-20" style="edgeStyle=orthogonalEdgeStyle;rounded=0;orthogonalLoop=1;jettySize=auto;html=1;exitX=1;exitY=0.5;exitDx=0;exitDy=0;exitPerimeter=0;entryX=0;entryY=0.5;entryDx=0;entryDy=0;" edge="1" parent="1" source="bS4X82QOEMJh5Wwm6DTl-17" target="bS4X82QOEMJh5Wwm6DTl-18">
          <mxGeometry relative="1" as="geometry" />
        </mxCell>
        <mxCell id="bS4X82QOEMJh5Wwm6DTl-17" value="" style="verticalLabelPosition=bottom;verticalAlign=top;html=1;shape=mxgraph.flowchart.or;" vertex="1" parent="1">
          <mxGeometry x="120" y="210" width="40" height="40" as="geometry" />
        </mxCell>
        <mxCell id="bS4X82QOEMJh5Wwm6DTl-19" style="edgeStyle=orthogonalEdgeStyle;rounded=0;orthogonalLoop=1;jettySize=auto;html=1;exitX=1;exitY=0.5;exitDx=0;exitDy=0;entryX=0;entryY=0.5;entryDx=0;entryDy=0;" edge="1" parent="1" source="bS4X82QOEMJh5Wwm6DTl-18" target="bS4X82QOEMJh5Wwm6DTl-2">
          <mxGeometry relative="1" as="geometry" />
        </mxCell>
        <mxCell id="bS4X82QOEMJh5Wwm6DTl-18" value="$$-k$$" style="rounded=0;whiteSpace=wrap;html=1;" vertex="1" parent="1">
          <mxGeometry x="200" y="200" width="60" height="60" as="geometry" />
        </mxCell>
        <mxCell id="bS4X82QOEMJh5Wwm6DTl-21" style="edgeStyle=orthogonalEdgeStyle;rounded=0;orthogonalLoop=1;jettySize=auto;html=1;exitX=1;exitY=0.5;exitDx=0;exitDy=0;entryX=0.5;entryY=1;entryDx=0;entryDy=0;entryPerimeter=0;" edge="1" parent="1" source="bS4X82QOEMJh5Wwm6DTl-3" target="bS4X82QOEMJh5Wwm6DTl-17">
          <mxGeometry relative="1" as="geometry">
            <Array as="points">
              <mxPoint x="560" y="230" />
              <mxPoint x="560" y="280" />
              <mxPoint x="140" y="280" />
            </Array>
          </mxGeometry>
        </mxCell>
        <mxCell id="bS4X82QOEMJh5Wwm6DTl-22" value="" style="endArrow=classic;html=1;rounded=0;entryX=0;entryY=0.5;entryDx=0;entryDy=0;entryPerimeter=0;" edge="1" parent="1" target="bS4X82QOEMJh5Wwm6DTl-17">
          <mxGeometry width="50" height="50" relative="1" as="geometry">
            <mxPoint x="60" y="230" as="sourcePoint" />
            <mxPoint x="90" y="230" as="targetPoint" />
          </mxGeometry>
        </mxCell>
      </root>
    </mxGraphModel>
  </diagram>
</mxfile>
